<svg enable-background="new 0 0 21 21" height="21" viewBox="0 0 21 21" width="21" xmlns="http://www.w3.org/2000/svg"><path d="m13.273 10.5 7.422-7.422c.389-.389.389-1.025 0-1.414l-1.359-1.359c-.389-.389-1.025-.389-1.414 0l-7.422 7.422-7.422-7.422c-.389-.389-1.025-.389-1.414 0l-1.359 1.359c-.389.389-.389 1.025 0 1.414l7.422 7.422-7.421 7.422c-.389.389-.389 1.025 0 1.414l1.359 1.359c.389.389 1.025.389 1.414 0l7.422-7.422 7.422 7.422c.389.389 1.025.389 1.414 0l1.359-1.359c.389-.389.389-1.025 0-1.414z"
fill="url(#paint0_linear)" stroke="none"/>
	<defs>
		<linearGradient id="paint0_linear" x1="21" y1="0" x2="0" y2="21" gradientUnits="userSpaceOnUse">
		<stop offset="0" stop-color="#FF2F96"/>
		<stop offset="1" stop-color="#FF905A"/>
		</linearGradient>
	</defs>
</svg>